<svg width="125" height="32" viewBox="0 0 125 32" fill="none" xmlns="http://www.w3.org/2000/svg">
<path fill-rule="evenodd" clip-rule="evenodd" d="M65.1362 24.417H69.234V10.5054H65.1362V11.9676H65.0952C64.6035 11.0903 63.3742 10.0041 61.1204 10.0041C57.4733 10.0041 54.2361 12.8867 54.2361 17.4403C54.2361 21.4091 56.7767 24.8765 61.1204 24.8765C62.7185 24.8765 64.3986 24.2499 65.0952 22.913H65.1362V24.417ZM65.1361 17.4399C65.1361 18.7768 64.2756 20.9909 61.7349 20.9909C59.2763 20.9909 58.3338 18.7768 58.3338 17.4817C58.3338 15.8942 59.3582 13.8889 61.694 13.8889C63.9887 13.8889 65.1361 15.7689 65.1361 17.4399Z" fill="#212121"/>
<path d="M79.6423 24.3752H75.5445L70.873 10.4636H74.9708L77.5934 19.1531H77.6344L80.3799 10.4636H84.4777L79.6423 24.3752Z" fill="#212121"/>
<path fill-rule="evenodd" clip-rule="evenodd" d="M95.2548 23.5812C96.4021 22.7874 97.3856 21.5759 98.0413 20.0302V19.9884H93.8615C93.2878 20.6986 92.6322 21.2835 91.3619 21.2835C89.7637 21.2835 88.4114 20.3226 88.1656 18.6516H98.4101C98.4128 18.632 98.4156 18.6126 98.4183 18.5933C98.4563 18.3242 98.492 18.0721 98.492 17.5654C98.492 13.3042 95.4187 9.96204 91.2799 9.96204C87.1002 9.96204 84.1088 13.5548 84.1088 17.44C84.1088 21.6177 87.469 24.8345 91.3619 24.8345C92.7551 24.8345 94.1074 24.4167 95.2548 23.5812ZM91.3209 13.5127C93.4517 13.5127 94.2713 15.0584 94.4352 15.894H88.2065C88.4114 15.0584 89.19 13.5127 91.3209 13.5127Z" fill="#212121"/>
<path d="M104.844 10.4634H108.655V11.9255H108.696C109.023 11.2571 109.761 9.96204 112.097 9.96204V14.1397C110.212 14.1815 108.9 14.5992 108.9 16.6881V24.3332H104.803V10.4634H104.844Z" fill="#212121"/>
<path d="M120.333 14.3906C120.292 14.0982 120.252 13.3462 119.063 13.3462C118.203 13.3462 117.916 13.8893 117.916 14.2653C117.916 15.0173 118.94 15.435 120.006 15.7692C122.3 16.4377 124.8 17.1061 124.8 20.114C124.8 23.0384 122.259 24.8765 119.227 24.8765C117.178 24.8765 114.023 23.9157 113.654 20.2393H117.711C117.875 21.5344 119.104 21.5344 119.268 21.5344C119.965 21.5344 120.702 21.1166 120.702 20.4482C120.702 19.362 119.678 19.2367 117.096 18.2341C115.334 17.6492 113.859 16.4794 113.859 14.5995C113.859 11.8423 116.318 10.0041 119.145 10.0041C120.948 10.0041 124.062 10.7143 124.39 14.3906H120.333Z" fill="#212121"/>
<path d="M51.0396 11.2145C50.302 10.5461 48.8678 10.003 47.5565 10.003C45.1388 10.003 44.6061 11.298 44.1963 11.9665H44.1553V10.5043H40.3444V24.4159H44.4422V15.9352C44.4422 15.3086 44.688 14.7655 45.0978 14.3895C45.1388 14.3477 45.1798 14.3059 45.2207 14.3059C45.2617 14.2642 45.3027 14.2224 45.3437 14.2224H45.3846C45.7125 14.0135 46.0813 13.8882 46.4911 13.8882C47.0238 13.8882 47.4745 14.0971 47.8433 14.4313C48.2531 14.8073 48.5399 15.3504 48.5399 15.977V16.5201C48.5399 16.6036 48.5399 16.729 48.5399 16.8125V24.4159H52.6377V15.6846C52.6377 12.9691 51.7772 11.8411 51.0396 11.2145Z" fill="#212121"/>
<path d="M101.156 24.4165C100.008 24.4165 99.1067 23.4974 99.1067 22.3277C99.1067 21.1579 100.008 20.2388 101.156 20.2388C102.303 20.2388 103.204 21.1579 103.204 22.3277C103.204 23.4556 102.303 24.4165 101.156 24.4165Z" fill="#212121"/>
<path d="M15.2989 24.1432L14.9327 32L21.5242 23.3657L22.2159 16.9003L27.6275 11.4578L31.8591 0L20.4663 4.21483L15.0141 9.65729L8.58528 10.3529L0 16.9821L7.8122 16.6138L15.2989 24.1432Z" fill="#212121"/>
<path d="M8.17822 19.2733L12.654 23.8155L6.02173 26.2298L8.17822 19.2733Z" fill="#212121"/>
</svg>
